<svg id="visual" viewBox="0 0 900 600" width="900" height="600" xmlns="http://www.w3.org/2000/svg" xmlns:xlink="http://www.w3.org/1999/xlink" version="1.1"><path d="M0 49L13.7 63C27.3 77 54.7 105 82 116C109.3 127 136.7 121 163.8 112C191 103 218 91 245.2 92C272.3 93 299.7 107 327 115C354.3 123 381.7 125 409 118C436.3 111 463.7 95 491 84C518.3 73 545.7 67 573 63C600.3 59 627.7 57 654.8 60C682 63 709 71 736.2 78C763.3 85 790.7 91 818 96C845.3 101 872.7 105 886.3 107L900 109L900 0L886.3 0C872.7 0 845.3 0 818 0C790.7 0 763.3 0 736.2 0C709 0 682 0 654.8 0C627.7 0 600.3 0 573 0C545.7 0 518.3 0 491 0C463.7 0 436.3 0 409 0C381.7 0 354.3 0 327 0C299.7 0 272.3 0 245.2 0C218 0 191 0 163.8 0C136.7 0 109.3 0 82 0C54.7 0 27.3 0 13.7 0L0 0Z" fill="#ffffff"></path><path d="M0 289L13.7 292C27.3 295 54.7 301 82 294C109.3 287 136.7 267 163.8 251C191 235 218 223 245.2 220C272.3 217 299.7 223 327 235C354.3 247 381.7 265 409 261C436.3 257 463.7 231 491 226C518.3 221 545.7 237 573 230C600.3 223 627.7 193 654.8 188C682 183 709 203 736.2 235C763.3 267 790.7 311 818 305C845.3 299 872.7 243 886.3 215L900 187L900 107L886.3 105C872.7 103 845.3 99 818 94C790.7 89 763.3 83 736.2 76C709 69 682 61 654.8 58C627.7 55 600.3 57 573 61C545.7 65 518.3 71 491 82C463.7 93 436.3 109 409 116C381.7 123 354.3 121 327 113C299.7 105 272.3 91 245.2 90C218 89 191 101 163.8 110C136.7 119 109.3 125 82 114C54.7 103 27.3 75 13.7 61L0 47Z" fill="#f2faf9"></path><path d="M0 457L13.7 448C27.3 439 54.7 421 82 422C109.3 423 136.7 443 163.8 443C191 443 218 423 245.2 419C272.3 415 299.7 427 327 441C354.3 455 381.7 471 409 467C436.3 463 463.7 439 491 427C518.3 415 545.7 415 573 426C600.3 437 627.7 459 654.8 470C682 481 709 481 736.2 478C763.3 475 790.7 469 818 456C845.3 443 872.7 423 886.3 413L900 403L900 185L886.3 213C872.7 241 845.3 297 818 303C790.7 309 763.3 265 736.2 233C709 201 682 181 654.8 186C627.7 191 600.3 221 573 228C545.7 235 518.3 219 491 224C463.7 229 436.3 255 409 259C381.7 263 354.3 245 327 233C299.7 221 272.3 215 245.2 218C218 221 191 233 163.8 249C136.7 265 109.3 285 82 292C54.7 299 27.3 293 13.7 290L0 287Z" fill="#eaf6f6"></path><path d="M0 517L13.7 523C27.3 529 54.7 541 82 548C109.3 555 136.7 557 163.8 554C191 551 218 543 245.2 540C272.3 537 299.7 539 327 540C354.3 541 381.7 541 409 538C436.3 535 463.7 529 491 524C518.3 519 545.7 515 573 521C600.3 527 627.7 543 654.8 547C682 551 709 543 736.2 542C763.3 541 790.7 547 818 552C845.3 557 872.7 561 886.3 563L900 565L900 401L886.3 411C872.7 421 845.3 441 818 454C790.7 467 763.3 473 736.2 476C709 479 682 479 654.8 468C627.7 457 600.3 435 573 424C545.7 413 518.3 413 491 425C463.7 437 436.3 461 409 465C381.7 469 354.3 453 327 439C299.7 425 272.3 413 245.2 417C218 421 191 441 163.8 441C136.7 441 109.3 421 82 420C54.7 419 27.3 437 13.7 446L0 455Z" fill="#f2faf9"></path><path d="M0 601L13.7 601C27.3 601 54.7 601 82 601C109.3 601 136.7 601 163.8 601C191 601 218 601 245.2 601C272.3 601 299.7 601 327 601C354.3 601 381.7 601 409 601C436.3 601 463.7 601 491 601C518.3 601 545.7 601 573 601C600.3 601 627.7 601 654.8 601C682 601 709 601 736.2 601C763.3 601 790.7 601 818 601C845.3 601 872.7 601 886.3 601L900 601L900 563L886.3 561C872.7 559 845.3 555 818 550C790.7 545 763.3 539 736.2 540C709 541 682 549 654.8 545C627.7 541 600.3 525 573 519C545.7 513 518.3 517 491 522C463.7 527 436.3 533 409 536C381.7 539 354.3 539 327 538C299.7 537 272.3 535 245.2 538C218 541 191 549 163.8 552C136.7 555 109.3 553 82 546C54.7 539 27.3 527 13.7 521L0 515Z" fill="#ffffff"></path></svg>